<?xml version="1.0" standalone="no"?>
<!DOCTYPE svg PUBLIC "-//W3C//DTD SVG 20010904//EN"
 "http://www.w3.org/TR/2001/REC-SVG-20010904/DTD/svg10.dtd">
<svg version="1.0" xmlns="http://www.w3.org/2000/svg"
 width="1056.000000pt" height="1056.000000pt" viewBox="0 0 1056.000000 1056.000000"
 preserveAspectRatio="xMidYMid meet">
<metadata>
Created by potrace 1.14, written by Peter Selinger 2001-2017
</metadata>
<g transform="translate(0.000000,1056.000000) scale(0.100000,-0.100000)"
fill="#000000" stroke="none">
<path d="M5008 10555 c-1 -1 -48 -6 -103 -9 -155 -10 -239 -19 -460 -51 -159
-23 -539 -110 -685 -157 -210 -67 -463 -159 -590 -215 -255 -113 -564 -282
-801 -439 -119 -78 -372 -264 -439 -321 -14 -12 -36 -31 -50 -43 -114 -97
-169 -148 -335 -315 -184 -184 -239 -243 -341 -370 -27 -33 -53 -65 -59 -71
-30 -33 -255 -340 -255 -348 0 -2 -22 -37 -49 -78 -27 -40 -58 -89 -69 -108
-11 -19 -38 -65 -60 -101 -53 -86 -225 -419 -220 -425 3 -2 14 15 27 39 100
193 351 519 532 692 77 73 231 205 284 241 17 11 53 36 80 56 221 154 554 297
800 344 11 2 31 6 45 9 92 19 187 28 340 30 267 4 438 -20 680 -97 107 -34
277 -105 360 -151 30 -17 71 -39 90 -50 295 -163 646 -497 882 -838 218 -315
396 -697 506 -1089 26 -92 41 -153 82 -335 5 -22 17 -87 25 -145 9 -58 18
-116 21 -130 2 -13 6 -58 10 -99 3 -41 8 -84 10 -95 3 -12 7 -131 10 -266 2
-135 7 -251 9 -257 2 -7 -1 -13 -8 -13 -8 0 -8 -3 2 -9 7 -5 11 -13 7 -19 -3
-6 -2 -12 3 -14 5 -1 12 -30 16 -63 3 -33 15 -105 26 -160 99 -506 351 -978
719 -1345 128 -128 166 -162 295 -257 55 -40 105 -77 110 -81 31 -24 195 -118
290 -165 206 -104 490 -200 685 -232 19 -3 46 -7 60 -10 14 -3 48 -8 75 -11
28 -3 61 -8 75 -10 65 -12 463 -11 568 2 227 26 486 89 647 155 17 7 32 13 35
14 14 5 49 19 80 32 294 127 570 314 802 545 129 129 157 161 242 273 37 50
73 97 79 105 7 8 40 60 74 115 119 193 231 444 283 630 33 122 49 181 54 207
2 12 7 39 11 58 10 56 13 72 20 130 4 30 13 61 19 69 8 11 8 13 -1 7 -7 -4
-13 -2 -13 3 0 6 4 11 10 11 9 0 6 262 -4 347 -3 21 -8 79 -11 128 -4 50 -9
92 -10 95 -2 3 -6 37 -10 75 -4 39 -9 73 -11 76 -1 3 -6 32 -9 65 -4 32 -9 62
-11 65 -2 4 -6 24 -9 45 -5 32 -19 103 -40 204 -1 8 -8 35 -15 60 -7 25 -13
52 -15 60 -8 41 -49 192 -66 245 -10 33 -19 63 -19 67 -1 18 -102 294 -153
418 -76 187 -133 307 -227 485 -190 354 -433 704 -710 1020 -51 58 -386 393
-446 445 -27 25 -72 63 -99 85 -26 22 -53 45 -59 51 -39 37 -381 288 -436 319
-10 6 -35 22 -56 37 -89 60 -120 78 -299 178 -344 192 -704 342 -1093 454 -68
20 -133 38 -145 41 -12 2 -60 14 -107 25 -163 39 -373 78 -515 94 -27 4 -61 8
-75 11 -14 2 -56 7 -95 11 -38 3 -88 8 -110 10 -50 5 -682 14 -687 9z"/>
<path d="M2449 7675 c-2 -1 -40 -6 -84 -9 -44 -4 -87 -9 -95 -11 -8 -2 -35 -7
-60 -10 -128 -18 -389 -88 -510 -138 -14 -6 -28 -11 -32 -11 -3 -1 -10 -4 -14
-8 -4 -5 -13 -8 -20 -8 -14 0 -195 -87 -289 -139 -188 -105 -395 -262 -560
-426 -130 -130 -158 -161 -255 -292 -44 -59 -85 -113 -90 -120 -25 -31 -160
-276 -199 -363 -18 -41 -39 -86 -46 -100 -20 -40 -95 -268 -112 -339 -21 -91
-22 -98 -28 -123 -3 -13 -12 -66 -21 -118 -8 -52 -19 -103 -24 -112 -6 -11 -6
-19 1 -23 7 -5 7 -11 -1 -20 -10 -12 -7 -338 4 -425 3 -19 7 -71 11 -115 3
-44 8 -87 10 -95 2 -8 6 -42 10 -75 6 -65 41 -275 55 -340 5 -22 11 -53 14
-70 10 -52 14 -69 26 -115 7 -25 13 -52 15 -60 50 -253 246 -789 395 -1080
103 -202 205 -380 304 -529 31 -47 56 -88 56 -93 0 -4 4 -8 8 -8 4 0 16 -14
26 -31 32 -54 190 -261 297 -390 57 -68 191 -212 299 -319 187 -188 228 -227
335 -315 26 -22 53 -45 59 -51 37 -35 378 -286 435 -319 9 -5 44 -27 76 -49
140 -91 118 -78 320 -189 346 -191 849 -388 1203 -472 9 -3 55 -14 102 -25
206 -49 413 -85 605 -105 33 -4 71 -8 85 -11 68 -11 271 -18 515 -19 315 0
464 9 695 40 157 21 183 25 206 30 12 3 39 7 60 11 21 3 66 12 99 19 33 8 71
16 85 19 14 3 34 7 45 10 11 2 43 9 70 16 80 18 290 79 415 120 119 40 230 81
335 124 100 42 110 46 248 110 54 25 101 46 105 47 4 1 23 12 43 25 20 12 52
30 70 38 32 14 67 34 232 128 180 104 576 387 709 508 9 8 46 40 82 70 64 54
402 392 461 460 37 44 125 149 145 174 8 10 20 23 26 30 53 57 345 475 398
571 9 17 21 37 26 45 67 101 249 465 325 650 62 150 117 302 111 307 -2 2 -9
-13 -16 -34 -23 -72 -167 -358 -245 -488 -63 -106 -230 -345 -254 -365 -3 -3
-24 -27 -46 -55 -50 -63 -274 -288 -339 -340 -27 -22 -63 -52 -80 -66 -77 -64
-254 -177 -391 -249 -144 -76 -408 -171 -546 -196 -24 -4 -46 -8 -49 -9 -3 -1
-27 -5 -55 -9 -27 -4 -61 -10 -75 -13 -14 -2 -106 -6 -205 -8 -187 -3 -265 2
-430 31 -176 30 -451 127 -615 216 -111 61 -278 166 -300 188 -3 3 -41 32 -85
65 -109 83 -344 318 -449 450 -285 359 -500 780 -635 1241 -23 77 -76 290 -85
339 -10 51 -35 198 -41 240 -3 22 -7 51 -10 65 -2 14 -7 57 -10 95 -4 39 -9
84 -11 100 -2 17 -6 138 -9 270 -3 132 -8 246 -10 253 -2 6 1 12 8 12 8 0 8 3
-2 9 -7 5 -11 13 -7 19 3 6 2 12 -3 14 -4 1 -11 28 -14 58 -44 407 -235 872
-505 1231 -97 130 -126 163 -252 289 -121 121 -145 142 -287 248 -372 278
-799 447 -1278 507 -54 7 -481 16 -486 10z"/>
</g>
</svg>
