<?xml version="1.0" standalone="no"?>
<!DOCTYPE svg PUBLIC "-//W3C//DTD SVG 20010904//EN"
 "http://www.w3.org/TR/2001/REC-SVG-20010904/DTD/svg10.dtd">
<svg version="1.0" xmlns="http://www.w3.org/2000/svg"
 width="500.000000pt" height="500.000000pt" viewBox="0 0 500.000000 500.000000"
 preserveAspectRatio="xMidYMid meet">
<metadata>
Created by potrace 1.11, written by Peter Selinger 2001-2013
</metadata>
<g transform="translate(0.000000,500.000000) scale(0.100000,-0.100000)"
fill="#000000" stroke="none">
<path d="M2260 4989 c-47 -4 -125 -16 -175 -25 -49 -9 -99 -18 -110 -19 -79
-10 -327 -89 -460 -147 -538 -231 -973 -641 -1244 -1169 -140 -272 -239 -611
-256 -874 -4 -66 -4 -67 5 -20 8 40 29 141 35 165 22 88 91 254 145 349 358
630 1082 915 1750 689 311 -105 597 -330 782 -618 66 -102 160 -311 174 -389
3 -13 9 -31 13 -40 9 -18 37 -167 46 -246 8 -79 9 -186 1 -235 -12 -72 -69
-180 -125 -237 l-51 -53 52 21 c314 123 605 382 775 689 42 77 98 221 122 315
38 148 46 215 45 380 -1 470 -230 905 -625 1187 -140 100 -389 216 -524 244
-52 10 -73 14 -105 19 -19 3 -48 8 -65 10 -61 10 -122 11 -205 4z"/>
<path d="M2744 4980 c424 -68 828 -339 1054 -707 70 -113 149 -293 166 -375 3
-13 12 -54 20 -93 35 -157 39 -385 11 -536 -3 -13 -7 -37 -11 -54 -3 -16 -18
-73 -34 -126 -156 -512 -585 -903 -1125 -1024 -321 -72 -512 -42 -660 102 -27
26 -46 40 -43 32 27 -66 68 -154 95 -202 18 -33 33 -61 33 -64 0 -2 12 -21 27
-41 15 -20 45 -62 67 -92 62 -85 232 -250 330 -319 191 -135 411 -222 654
-258 90 -14 414 -5 442 12 3 2 24 6 47 9 68 11 222 64 328 115 221 106 401
258 570 483 19 26 35 49 35 51 0 3 21 39 46 81 90 149 161 359 188 556 15 105
12 193 -9 325 -11 65 -15 91 -20 115 -3 14 -8 41 -11 60 -11 66 -74 275 -115
380 -94 241 -249 500 -428 715 -73 87 -291 291 -391 366 -162 121 -244 170
-415 254 -226 110 -460 186 -680 220 -11 2 -33 6 -50 9 -16 3 -64 8 -105 10
l-75 5 59 -9z"/>
<path d="M1378 3785 c-2 -1 -34 -6 -73 -10 -38 -4 -120 -19 -182 -35 -576
-146 -1022 -655 -1106 -1263 -7 -50 -12 -111 -11 -134 2 -60 14 -182 19 -196
2 -7 6 -31 9 -54 3 -22 7 -52 10 -65 111 -523 330 -932 691 -1293 277 -278
597 -478 957 -600 75 -25 146 -48 158 -50 12 -2 29 -6 38 -9 9 -3 28 -8 42
-10 14 -3 48 -10 75 -16 28 -6 68 -13 90 -16 22 -3 45 -7 52 -9 7 -2 45 -6 85
-9 40 -2 60 -2 43 0 -99 16 -266 65 -360 105 -16 7 -32 13 -35 14 -3 0 -39 18
-80 39 -450 228 -763 682 -807 1171 -50 551 196 1058 666 1373 170 114 437
215 626 237 28 3 64 8 80 11 17 3 69 6 117 6 145 -1 259 -45 352 -139 l47 -47
-21 55 c-36 90 -89 189 -152 284 -96 143 -147 198 -321 351 -7 5 -46 33 -88
61 -181 122 -396 205 -619 239 -39 6 -297 14 -302 9z"/>
<path d="M2170 2866 c-19 -7 -73 -32 -120 -55 -313 -155 -570 -421 -712 -736
-34 -75 -82 -219 -92 -275 -10 -57 -19 -106 -23 -125 -11 -47 -9 -299 3 -381
35 -242 123 -464 260 -655 116 -162 306 -332 491 -439 181 -104 446 -183 649
-194 59 -3 285 22 344 39 8 2 31 6 50 9 126 19 411 118 579 201 99 49 320 178
331 194 3 3 17 14 32 24 123 78 366 310 494 472 135 170 281 418 356 601 66
162 133 400 154 544 2 19 7 46 9 60 3 14 7 56 9 95 5 72 1 59 -19 -59 -4 -22
-10 -49 -15 -60 -4 -12 -8 -25 -9 -31 -2 -18 -33 -109 -58 -170 -181 -447
-560 -780 -1017 -895 -609 -154 -1238 99 -1592 641 -67 103 -154 291 -180 389
-38 146 -46 187 -59 295 -25 216 15 363 131 478 26 26 45 47 43 46 -2 0 -20
-6 -39 -13z"/>
</g>
</svg>
