<svg width="21" height="30" viewBox="0 0 21 30" fill="none" xmlns="http://www.w3.org/2000/svg">
<path d="M6.04323 8.74487L8.3356 10.158L10.5 11.5712M10.5 11.5712L12.9204 19.6369L12.5 29M10.5 11.5712L13.3788 13.4554M10.5 11.5712L15.2127 5.44752M13.3788 13.4554L16.1297 15.5M13.3788 13.4554L18.4221 8.74487M16.1297 15.5L18.518 13L17.9636 18.6369L16.1297 20.9922L15.6712 29H12.5M16.1297 15.5C17.1995 14.5579 19.4307 11.948 19.7975 11.5712C20.1643 11.1943 19.9503 10.472 19.7975 10.158L18.4221 8.74487M18.4221 8.74487L15.2127 5.44752M15.2127 5.44752L12.0034 3M15.2127 5.44752L12.0034 9.61767L13.3788 7.74724L5.12628 4.50542L1 11.5712L6.96018 20.5211L6.5017 29H12.5M12.0034 3C12.4619 3.47105 10.4446 1.58491 9.71103 1.20807C8.97747 0.831233 8.48843 1.05106 8.3356 1.20807L6.04323 4.88226L9.71103 6.30643L12.0034 3Z" stroke="white"/>
</svg>
