<svg width="37" height="28" viewBox="0 0 37 28" fill="none" xmlns="http://www.w3.org/2000/svg">
<path d="M23.5 5.53086C23.5 6.93761 22.9273 8.56381 21.987 9.83594C21.0428 11.1134 19.7993 11.9444 18.5 11.9444C17.2007 11.9444 15.9572 11.1134 15.013 9.83594C14.0727 8.56381 13.5 6.93761 13.5 5.53086C13.5 2.74975 15.7412 0.5 18.5 0.5C21.2588 0.5 23.5 2.74975 23.5 5.53086Z" stroke="white"/>
<path d="M30.5 9.90947C30.5 10.8308 30.1922 11.8943 29.6935 12.7189C29.1806 13.5671 28.5617 14.0185 28 14.0185C27.4383 14.0185 26.8194 13.5671 26.3065 12.7189C25.8078 11.8943 25.5 10.8308 25.5 9.90947C25.5 8.04788 26.7107 6.72223 28 6.72223C29.2893 6.72223 30.5 8.04788 30.5 9.90947Z" stroke="white"/>
<path d="M10.5 9.90947C10.5 10.8131 10.1471 11.8662 9.56632 12.6894C8.97946 13.5212 8.23652 14.0185 7.5 14.0185C6.76348 14.0185 6.02054 13.5212 5.43368 12.6894C4.85291 11.8662 4.5 10.8131 4.5 9.90947C4.5 8.12433 5.86738 6.72223 7.5 6.72223C9.13262 6.72223 10.5 8.12433 10.5 9.90947Z" stroke="white"/>
<path d="M16.8889 16.0555H20.1111C24.7442 16.0555 28.5 19.8114 28.5 24.4444C28.5 26.132 27.132 27.5 25.4444 27.5H11.5556C9.86802 27.5 8.5 26.132 8.5 24.4444C8.5 19.8114 12.2558 16.0555 16.8889 16.0555Z" stroke="white"/>
<path d="M29.8554 16.5926C28.763 16.5926 28.9451 17.5499 29.1726 18.0285C29.1726 18.0285 31.2209 21.2593 31.2209 25.208C31.2209 25.7823 32.1312 25.9259 32.5863 25.9259C35.3173 25.9259 36 23.5328 36 22.3362C36 16.5926 31.2208 16.5926 29.8554 16.5926Z" stroke="white"/>
<path d="M7.14463 16.5926C8.237 16.5926 8.05494 17.5499 7.82736 18.0285C7.82736 18.0285 5.77912 21.2593 5.77912 25.208C5.77912 25.7823 4.86881 25.9259 4.41366 25.9259C1.68269 25.9259 0.999984 23.5328 1 22.3362C1 16.5926 5.77917 16.5926 7.14463 16.5926Z" stroke="white"/>
</svg>
