<svg width="28" height="28" viewBox="0 0 28 28" fill="none" xmlns="http://www.w3.org/2000/svg">
<rect x="13.5" y="0.5" width="1" height="2.11111" rx="0.5" stroke="white"/>
<rect x="0.5" y="11.9074" width="2" height="1.07407" rx="0.5" stroke="white"/>
<rect x="-0.0125546" y="0.719727" width="2.058" height="1.03608" rx="0.5" transform="matrix(0.681483 0.731834 -0.706593 0.707621 5.94321 3.33071)" stroke="white"/>
<rect x="0.0125546" y="0.719727" width="2.058" height="1.03608" rx="0.5" transform="matrix(-0.681483 0.731834 0.706593 0.707621 21.5965 3.31233)" stroke="white"/>
<rect x="-0.0125546" y="-0.719727" width="2.058" height="1.03608" rx="0.5" transform="matrix(0.681483 -0.731834 -0.706593 -0.707621 4.92611 21.1072)" stroke="white"/>
<rect x="0.0125546" y="-0.719727" width="2.058" height="1.03608" rx="0.5" transform="matrix(-0.681483 -0.731834 0.706593 -0.707621 22.6136 21.1256)" stroke="white"/>
<rect x="25.5" y="11.9074" width="2" height="1.07407" rx="0.5" stroke="white"/>
<path d="M9.98728 19.2767L9.98426 19.2745C8.09424 17.9387 6.84784 15.6839 6.84784 13.1208C6.84784 8.99691 10.067 5.68518 14 5.68518C17.9331 5.68518 21.1522 8.99691 21.1522 13.1208C21.1522 15.6758 19.9136 17.9245 18.0335 19.2619C16.6674 20.0604 16.1089 21.2346 15.946 22.0443H12.0533C11.9293 21.4742 11.614 20.9511 11.2851 20.5307C10.8532 19.9788 10.3389 19.5291 9.98728 19.2767Z" stroke="white"/>
<rect x="11.3784" y="23.2883" width="5.24316" height="0.495974" rx="0.247987" stroke="white" stroke-width="0.495974"/>
<rect x="11.3784" y="25.2722" width="5.24316" height="0.495974" rx="0.247987" stroke="white" stroke-width="0.495974"/>
<rect x="12.335" y="27.256" width="3.33011" height="0.495974" rx="0.247987" stroke="white" stroke-width="0.495974"/>
</svg>
