<svg width="28" height="28" viewBox="0 0 28 28" fill="none" xmlns="http://www.w3.org/2000/svg">
<path d="M9.61111 20.0755V27.5H0.5V12.8608L14 0.673605L27.5 12.8608V27.5H18.3889V20.0755H17.8889C18.3889 20.0755 18.3889 20.0752 18.3889 20.0749L18.3889 20.0743L18.3889 20.0727L18.3889 20.0686L18.3887 20.0564C18.3885 20.0465 18.3882 20.0331 18.3876 20.0164C18.3865 19.9831 18.3842 19.9368 18.3799 19.8791C18.3712 19.764 18.3542 19.6031 18.3206 19.4113C18.2538 19.0301 18.1193 18.5147 17.8453 17.9937C17.5701 17.4703 17.1508 16.9353 16.516 16.5329C15.8792 16.1292 15.0547 15.8774 14 15.8774C12.9453 15.8774 12.1208 16.1292 11.484 16.5329C10.8492 16.9353 10.4299 17.4703 10.1547 17.9937C9.88073 18.5147 9.7462 19.0301 9.67938 19.4113C9.64578 19.6031 9.62876 19.764 9.62011 19.8791C9.61578 19.9368 9.61353 19.9831 9.61237 20.0164C9.61178 20.0331 9.61147 20.0465 9.6113 20.0564L9.61114 20.0686L9.61112 20.0727L9.61111 20.0743L9.61111 20.0749C9.61111 20.0752 9.61111 20.0755 10.1111 20.0755H9.61111Z" stroke="white"/>
</svg>
