<svg width="17" height="26" viewBox="0 0 17 26" fill="none" xmlns="http://www.w3.org/2000/svg">
<path d="M8.37449 1C5.31987 1 2.84362 3.38781 2.84362 6.33333C2.84362 6.81913 2.91098 6.84532 3.03718 7.29257C3.36869 8.46743 4.10624 10.0744 5.09549 10.7778C2.66807 11.9417 1 13.764 1 16.5556V25H2.84615C7.16405 25 9.58492 25 13.9028 25H15.749V16.5556C15.749 13.764 14.0809 11.9417 11.6535 10.7778C12.6427 10.0744 13.3803 8.46743 13.7118 7.29257C13.838 6.84532 13.9053 6.81913 13.9053 6.33333C13.9053 3.38781 11.4291 1 8.37449 1Z" stroke="white" stroke-opacity="0.87"/>
</svg>
