<svg width="18" height="26" viewBox="0 0 18 26" fill="none" xmlns="http://www.w3.org/2000/svg">
<path d="M5.24693 7.63846L7.17735 8.84973L9 10.061M9 10.061L11.4243 11.676M9 10.061L12.9686 4.81216M11.4243 11.676L13.7408 13.4286M11.4243 11.676L15.6712 7.63846M13.7408 13.4286L14.9192 12.1731C15.199 11.8749 15.6984 12.092 15.6712 12.5V12.5L15.3149 15.8386C15.2954 16.0209 15.2262 16.1944 15.1148 16.34L13.9277 17.8918C13.8059 18.051 13.7348 18.2431 13.7235 18.4433L13.3547 25H10.6842H5.63301L6.00174 18.0591C6.01302 17.8468 5.95635 17.6365 5.83996 17.4586L1.33577 10.5742C1.12975 10.2593 1.11794 9.85544 1.3052 9.52905L4.04255 4.75797C4.29046 4.32586 4.81862 4.14214 5.28119 4.32709L10.2347 6.3077C10.8389 6.54928 11.0551 7.2944 10.674 7.82184L10.266 8.38657L12.9686 4.81216M13.7408 13.4286C14.6416 12.6211 16.5206 10.384 16.8295 10.061C17.0906 9.78792 17.0022 9.30321 16.8908 8.99724C16.8546 8.89772 16.7922 8.81073 16.719 8.73419L15.6712 7.63846M15.6712 7.63846L12.9686 4.81216M12.9686 4.81216L10.266 2.71429M10.266 2.71429C10.6521 3.11804 8.95334 1.50135 8.3356 1.17835C7.81686 0.907104 7.44332 0.996508 7.26071 1.11183C7.20059 1.14979 7.15861 1.20892 7.12145 1.26955L5.8691 3.31264C5.54439 3.84237 5.77628 4.53686 6.35412 4.76524L7.5918 5.2544C8.02668 5.42628 8.5226 5.27383 8.78585 4.88736L10.266 2.71429Z" stroke="white" stroke-opacity="0.87"/>
</svg>
